<svg id="Capa_1" enable-background="new 0 0 512 512" height="512" viewBox="0 0 512 512" width="512" xmlns="http://www.w3.org/2000/svg"><g><g><g><g><g><g><g><g><g><circle cx="256" cy="246.541" fill="#db636e" r="246.541"/><circle cx="256" cy="246.541" fill="#f7f4f7" r="198.437"/><path d="m256 48.103c-11.099 0-21.985.911-32.587 2.663 94.09 15.545 165.85 97.279 165.85 195.774s-71.76 180.229-165.85 195.774c10.602 1.752 21.488 2.663 32.587 2.663 109.594 0 198.437-88.843 198.437-198.437s-88.843-198.437-198.437-198.437z" fill="#edeaed"/></g></g><g><path d="m223.412 341.679c-.897 0-1.808-.157-2.698-.489-3.998-1.49-6.031-5.94-4.54-9.939l32.1-86.104v-129.919c0-4.267 3.459-7.726 7.726-7.726 4.268 0 7.726 3.459 7.726 7.726v131.312c0 .922-.165 1.836-.487 2.699l-32.587 87.409c-1.159 3.11-4.106 5.031-7.24 5.031z" fill="#665e66"/></g></g><circle cx="256" cy="246.541" fill="#bcd6f9" r="20.285"/></g></g><g fill="#a096a3"><g><path d="m256 48.103c-2.589 0-5.162.066-7.726.164v15.285c0 4.267 3.459 7.726 7.726 7.726 4.268 0 7.726-3.459 7.726-7.726v-15.285c-2.564-.098-5.137-.164-7.726-.164z"/><path d="m256 421.803c-4.267 0-7.726 3.459-7.726 7.726v15.285c2.565.098 5.138.164 7.726.164s5.162-.066 7.726-.164v-15.285c0-4.267-3.458-7.726-7.726-7.726z"/></g><g><path d="m454.273 238.814h-15.284c-4.268 0-7.726 3.459-7.726 7.726s3.459 7.726 7.726 7.726h15.284c.098-2.565.164-5.138.164-7.727 0-2.587-.066-5.16-.164-7.725z"/><path d="m57.727 254.267h15.285c4.267 0 7.726-3.459 7.726-7.726s-3.459-7.726-7.726-7.726h-15.285c-.098 2.565-.164 5.138-.164 7.726s.065 5.161.164 7.726z"/></g></g></g><g><g><g><g><path d="m363.147 270.3c-9.178 39.714-27.547 130.808-14.341 174.292h38.037c13.207-43.484-5.163-134.578-14.341-174.292-1.071-4.633-8.285-4.633-9.355 0z" fill="#badd93"/></g></g></g><g><path d="m387.781 428.149-89.254-113.337c-3.695-4.693-11.162-.858-9.492 4.876 10.349 35.542 30.065 96.938 47.901 116.718 5.078 5.631 27.017 13.783 27.017 13.783l28.028-9.091z" fill="#c9e5ad"/><path d="m348.888 427.706 92.073-113.124c3.812-4.684 11.298-.686 9.516 5.084-11.041 35.762-31.97 97.509-50.323 117.215-5.225 5.61-27.536 13.494-27.536 13.494l-28.819-2.581z" fill="#a8d680"/><path d="m380.668 412.79h-86.62c-5.023 0-8.355 5.205-6.251 9.767l30.675 66.523c1.125 2.439 3.565 4.001 6.251 4.001h29.224l32.709-70.935c2.016-4.369-1.176-9.356-5.988-9.356z" fill="#efc984"/><path d="m441.6 412.79h-64.538c4.812 0 8.004 4.987 5.989 9.357l-32.709 70.935h60.583c2.686 0 5.127-1.562 6.251-4.001l30.675-66.523c2.104-4.563-1.228-9.768-6.251-9.768z" fill="#e8ae4d"/></g></g><path d="m36.902 477.503c-9.526 0-17.248 7.722-17.248 17.248s7.722 17.248 17.248 17.248h390.27l3.606-4.636v-26.098l-3.606-3.763h-390.27z" fill="#b58c8c"/><path d="m475.098 477.503h-47.926v34.497h47.926c9.526 0 17.248-7.722 17.248-17.248 0-9.527-7.722-17.249-17.248-17.249z" fill="#a87f7f"/></g><g fill="#a096a3"><g><path d="m390.737 100.876-17.365 17.365c-3.017 3.017-3.017 7.909 0 10.927 1.509 1.509 3.487 2.263 5.464 2.263s3.955-.755 5.464-2.263l17.365-17.365c-3.501-3.782-7.146-7.427-10.928-10.927z"/><path d="m127.7 363.914-17.365 17.364c3.5 3.782 7.145 7.427 10.926 10.927l17.365-17.364c3.018-3.017 3.018-7.909 0-10.927-3.016-3.018-7.908-3.018-10.926 0z"/></g><path d="m110.336 111.803 17.365 17.365c1.509 1.509 3.486 2.263 5.463 2.263s3.955-.755 5.463-2.263c3.018-3.017 3.018-7.909 0-10.927l-17.365-17.365c-3.782 3.5-7.426 7.145-10.926 10.927z"/></g></g></g></svg>